<?xml version="1.0" encoding="UTF-8" standalone="no"?>
<svg
   xmlns:dc="http://purl.org/dc/elements/1.1/"
   xmlns:cc="http://creativecommons.org/ns#"
   xmlns:rdf="http://www.w3.org/1999/02/22-rdf-syntax-ns#"
   xmlns:svg="http://www.w3.org/2000/svg"
   xmlns="http://www.w3.org/2000/svg"
   xmlns:sodipodi="http://sodipodi.sourceforge.net/DTD/sodipodi-0.dtd"
   xmlns:inkscape="http://www.inkscape.org/namespaces/inkscape"
   width="512"
   height="512"
   viewBox="0 0 512 512.00002"
   version="1.1"
   id="svg817"
   sodipodi:docname="fantom.svg"
   inkscape:version="0.92.3 (2405546, 2018-03-11)"
   inkscape:export-filename="C:\Users\peter\Source\Repos\ethereum-gas-price-extension\static\icon128.png"
   inkscape:export-xdpi="24"
   inkscape:export-ydpi="24">
  <metadata
     id="metadata823">
    <rdf:RDF>
      <cc:Work
         rdf:about="">
        <dc:format>image/svg+xml</dc:format>
        <dc:type
           rdf:resource="http://purl.org/dc/dcmitype/StillImage" />
        <dc:title></dc:title>
      </cc:Work>
    </rdf:RDF>
  </metadata>
  <defs
     id="defs821" />
  <sodipodi:namedview
     pagecolor="#ffffff"
     bordercolor="#666666"
     borderopacity="1"
     objecttolerance="10"
     gridtolerance="10"
     guidetolerance="10"
     inkscape:pageopacity="0"
     inkscape:pageshadow="2"
     inkscape:window-width="5120"
     inkscape:window-height="2076"
     id="namedview819"
     showgrid="false"
     inkscape:zoom="0.84524151"
     inkscape:cx="-325.3422"
     inkscape:cy="-88.552313"
     inkscape:window-x="3832"
     inkscape:window-y="-8"
     inkscape:window-maximized="1"
     inkscape:current-layer="Group_69" />
  <g
     id="Group_69"
     data-name="Group 69"
     transform="matrix(6.8731302,0,0,6.8731302,-3516.0495,-6350.817)">
    <path
       id="explorer-logo"
       d="m 24.753,0.675 a 7.082,7.082 0 0 1 6.032,0 l 17.479,9.2 a 2.947,2.947 0 0 1 1.7,2.186 h 0.018 v 46.177 a 2.878,2.878 0 0 1 -1.719,2.4 l -17.478,9.193 a 7.082,7.082 0 0 1 -6.032,0 l -17.479,-9.2 a 2.847,2.847 0 0 1 -1.68,-2.4 c 0,-0.079 0,-0.146 0,-0.2 V 12.047 A 2.843,2.843 0 0 1 7.274,9.87 Z m 22.476,37.143 -16.444,8.637 a 7.07,7.07 0 0 1 -6.032,0 L 8.344,37.837 v 20.31 l 16.409,8.581 a 8.056,8.056 0 0 0 2.647,1.016 l 0.375,0.023 a 6.924,6.924 0 0 0 2.9,-0.962 L 47.24,58.069 V 37.818 Z M 2.752,57.234 a 8.475,8.475 0 0 0 0.617,3.753 4.789,4.789 0 0 0 1.78,1.83 l 0.053,0.035 c 0.206,0.137 0.432,0.282 0.705,0.451 l 0.324,0.2 0.992,0.6 L 5.8,66.44 4.69,65.77 4.5,65.656 C 4.177,65.456 3.911,65.289 3.663,65.127 1.01,63.341 0.019,61.4 0,57.357 v -0.123 h 2.75 z m 23.637,-31.8 a 2.9,2.9 0 0 0 -0.353,0.15 L 8.561,34.777 8.508,34.807 H 8.493 l 0.028,0.018 0.041,0.021 17.478,9.189 a 2.585,2.585 0 0 0 0.353,0.15 z m 2.759,0 v 18.758 a 2.584,2.584 0 0 0 0.353,-0.15 l 17.479,-9.189 0.053,-0.03 h 0.016 L 47.021,34.809 46.98,34.786 29.5,25.6 a 2.584,2.584 0 0 0 -0.353,-0.15 z m 18.081,-10.1 -15.688,8.243 15.688,8.242 V 15.326 Z M 8.344,15.353 V 31.8 L 23.986,23.577 Z M 29.5,3.1 a 4.375,4.375 0 0 0 -3.462,0 l -17.478,9.185 -0.053,0.028 -0.016,0.009 0.028,0.016 0.041,0.019 17.479,9.189 a 4.347,4.347 0 0 0 3.462,0 l 17.479,-9.189 0.053,-0.019 0.016,-0.009 -0.028,-0.016 -0.041,-0.021 z m 20.31,1.014 1.11,0.668 0.2,0.1 c 0.321,0.2 0.587,0.368 0.836,0.529 2.656,1.78 3.645,3.725 3.666,7.766 V 13.3 H 52.861 A 8.484,8.484 0 0 0 52.244,9.546 4.78,4.78 0 0 0 50.462,7.718 L 50.409,7.683 C 50.209,7.544 49.979,7.401 49.704,7.232 L 49.381,7.047 48.389,6.447 49.813,4.11 Z"
       transform="translate(521,926)"
       inkscape:connector-curvature="0"
       style="fill:#000000;fill-opacity:1" />
  </g>
</svg>
