<?xml version="1.0" encoding="UTF-8" standalone="no"?>
<svg
   xmlns:dc="http://purl.org/dc/elements/1.1/"
   xmlns:cc="http://creativecommons.org/ns#"
   xmlns:rdf="http://www.w3.org/1999/02/22-rdf-syntax-ns#"
   xmlns:svg="http://www.w3.org/2000/svg"
   xmlns="http://www.w3.org/2000/svg"
   xmlns:sodipodi="http://sodipodi.sourceforge.net/DTD/sodipodi-0.dtd"
   xmlns:inkscape="http://www.inkscape.org/namespaces/inkscape"
   version="1.1"
   xml:space="preserve"
   enable-background="new 0 0 65 65"
   y="0px"
   x="0px"
   viewBox="0 0 512 512"
   id="svg911"
   sodipodi:docname="github-light.svg"
   inkscape:version="0.92.3 (2405546, 2018-03-11)"
   width="512"
   height="512"><defs
   id="defs915" /><sodipodi:namedview
   pagecolor="#ffffff"
   bordercolor="#666666"
   borderopacity="1"
   objecttolerance="10"
   gridtolerance="10"
   guidetolerance="10"
   inkscape:pageopacity="0"
   inkscape:pageshadow="2"
   inkscape:window-width="5120"
   inkscape:window-height="2076"
   id="namedview913"
   showgrid="false"
   inkscape:zoom="1.2836708"
   inkscape:cx="-398.1675"
   inkscape:cy="529.74396"
   inkscape:window-x="3832"
   inkscape:window-y="-8"
   inkscape:window-maximized="1"
   inkscape:current-layer="svg911" />

<metadata
   id="metadata909"><rdf:RDF><cc:Work><dc:format>image/svg+xml</dc:format><dc:type
         rdf:resource="http://purl.org/dc/dcmitype/StillImage" /><cc:license
         rdf:resource="http://creativecommons.org/publicdomain/zero/1.0/" /><dc:publisher><cc:Agent
           rdf:about="http://openclipart.org/"><dc:title>Openclipart</dc:title></cc:Agent></dc:publisher><dc:title></dc:title><dc:date>2013-08-22T04:53:13</dc:date><dc:description>A refresh icon</dc:description><dc:source>https://openclipart.org/detail/182094/refresh-icon-by-pianobrad-182094</dc:source><dc:creator><cc:Agent><dc:title>pianoBrad</dc:title></cc:Agent></dc:creator><dc:subject><rdf:Bag><rdf:li>design</rdf:li><rdf:li>icon</rdf:li><rdf:li>refresh</rdf:li><rdf:li>web</rdf:li></rdf:Bag></dc:subject></cc:Work><cc:License
       rdf:about="http://creativecommons.org/publicdomain/zero/1.0/"><cc:permits
         rdf:resource="http://creativecommons.org/ns#Reproduction" /><cc:permits
         rdf:resource="http://creativecommons.org/ns#Distribution" /><cc:permits
         rdf:resource="http://creativecommons.org/ns#DerivativeWorks" /></cc:License></rdf:RDF></metadata><g
   id="g3110"
   transform="matrix(3.1049465,0,0,3.1049465,-2.263133,-410.14259)"><path
     inkscape:connector-curvature="0"
     id="path20"
     style="fill:#1b1817;fill-opacity:1;fill-rule:nonzero;stroke:none;stroke-width:0.13333333"
     d="m 33.157273,251.61851 c -0.17732,0.40133 -0.806666,0.52 -1.379999,0.24533 -0.584,-0.26266 -0.912,-0.808 -0.722667,-1.20933 0.173333,-0.41067 0.804,-0.52533 1.38668,-0.252 0.58532,0.264 0.918653,0.81467 0.715986,1.216 v 0" /><path
     inkscape:connector-curvature="0"
     id="path22"
     style="fill:#1b1817;fill-opacity:1;fill-rule:nonzero;stroke:none;stroke-width:0.13333333"
     d="m 36.418607,255.25584 c -0.384,0.356 -1.134667,0.19067 -1.643987,-0.372 -0.526667,-0.56133 -0.625347,-1.312 -0.236013,-1.67333 0.396,-0.35467 1.124,-0.188 1.652,0.372 0.526666,0.568 0.629333,1.31333 0.228,1.67333 v 0" /><path
     inkscape:connector-curvature="0"
     id="path24"
     style="fill:#1b1817;fill-opacity:1;fill-rule:nonzero;stroke:none;stroke-width:0.13333333"
     d="m 39.593273,259.89318 c -0.493333,0.34266 -1.3,0.0213 -1.798666,-0.69467 -0.493334,-0.716 -0.493334,-1.57467 0.01067,-1.91867 0.5,-0.344 1.294667,-0.0333 1.8,0.676 0.492,0.728 0.492,1.58667 -0.012,1.93734 v 0" /><path
     inkscape:connector-curvature="0"
     id="path26"
     style="fill:#1b1817;fill-opacity:1;fill-rule:nonzero;stroke:none;stroke-width:0.13333333"
     d="m 43.942607,264.37318 c -0.44132,0.48666 -1.381334,0.356 -2.06932,-0.308 -0.704014,-0.64934 -0.9,-1.57067 -0.457347,-2.05734 0.44668,-0.488 1.392013,-0.35066 2.085347,0.308 0.698653,0.648 0.912,1.576 0.44132,2.05734 v 0" /><path
     inkscape:connector-curvature="0"
     id="path28"
     style="fill:#1b1817;fill-opacity:1;fill-rule:nonzero;stroke:none;stroke-width:0.13333333"
     d="m 49.942606,266.97451 c -0.194653,0.63067 -1.1,0.91733 -2.012,0.64933 -0.910666,-0.276 -1.506666,-1.01466 -1.322653,-1.652 0.189333,-0.63466 1.098653,-0.93333 2.01732,-0.64666 0.909333,0.27466 1.50668,1.008 1.317333,1.64933 v 0" /><path
     inkscape:connector-curvature="0"
     id="path30"
     style="fill:#1b1817;fill-opacity:1;fill-rule:nonzero;stroke:none;stroke-width:0.13333333"
     d="m 56.53194,267.45718 c 0.02267,0.664 -0.750667,1.21466 -1.708,1.22666 -0.962654,0.0213 -1.741334,-0.516 -1.752,-1.16933 0,-0.67067 0.756,-1.216 1.718666,-1.232 0.957334,-0.0187 1.741334,0.51467 1.741334,1.17467 v 0" /><path
     inkscape:connector-curvature="0"
     id="path32"
     style="fill:#1b1817;fill-opacity:1;fill-rule:nonzero;stroke:none;stroke-width:0.13333333"
     d="m 62.663939,266.41318 c 0.114667,0.648 -0.550666,1.31333 -1.501333,1.49066 -0.934667,0.17067 -1.8,-0.22933 -1.918666,-0.872 -0.116,-0.664 0.561333,-1.32933 1.494666,-1.50133 0.952,-0.16533 1.804013,0.224 1.925333,0.88267 v 0" /><path
     d="m 83.178612,136.01318 c -44.462665,0 -80.5173309,36.048 -80.5173309,80.51733 0,35.57467 23.0706659,65.756 55.0626649,76.40267 4.024,0.74533 5.501333,-1.74667 5.501333,-3.87334 0,-1.92 -0.07467,-8.26266 -0.109333,-14.99066 -22.399999,4.87066 -27.126666,-9.5 -27.126666,-9.5 -3.662666,-9.30667 -8.94,-11.78134 -8.94,-11.78134 -7.305333,-4.99733 0.550667,-4.89466 0.550667,-4.89466 8.085333,0.56666 12.342666,8.29866 12.342666,8.29866 7.181334,12.308 18.836,8.74934 23.430666,6.692 0.722667,-5.204 2.809334,-8.75733 5.112,-10.76666 -17.883999,-2.036 -36.683999,-8.94 -36.683999,-39.792 0,-8.79067 3.145334,-15.97333 8.296,-21.612 -0.836,-2.02933 -3.592,-10.21733 0.78,-21.308 0,0 6.761333,-2.164 22.147999,8.25333 6.422667,-1.784 13.310667,-2.67866 20.153333,-2.70933 6.842667,0.0307 13.736,0.92533 20.170668,2.70933 15.368,-10.41733 22.12,-8.25333 22.12,-8.25333 4.38266,11.09067 1.62533,19.27867 0.78933,21.308 5.16267,5.63867 8.28667,12.82133 8.28667,21.612 0,30.92533 -18.836,37.73466 -36.765335,39.728 2.888005,2.49866 5.461335,7.39866 5.461335,14.91066 0,10.77334 -0.0933,19.444 -0.0933,22.096 0,2.14267 1.44934,4.65334 5.53067,3.86267 31.97467,-10.65867 55.016,-40.82933 55.016,-76.392 -4e-5,-44.46933 -36.04937,-80.51733 -80.516038,-80.51733"
     style="fill:#1b1817;fill-opacity:1;fill-rule:evenodd;stroke:none;stroke-width:0.13333333"
     id="path18"
     inkscape:connector-curvature="0" /></g></svg>