<?xml version="1.0" encoding="UTF-8" standalone="no"?>
<svg
   xmlns:dc="http://purl.org/dc/elements/1.1/"
   xmlns:cc="http://creativecommons.org/ns#"
   xmlns:rdf="http://www.w3.org/1999/02/22-rdf-syntax-ns#"
   xmlns:svg="http://www.w3.org/2000/svg"
   xmlns="http://www.w3.org/2000/svg"
   xmlns:sodipodi="http://sodipodi.sourceforge.net/DTD/sodipodi-0.dtd"
   xmlns:inkscape="http://www.inkscape.org/namespaces/inkscape"
   width="356.96"
   height="73"
   viewBox="0 0 356.96 73"
   version="1.1"
   id="svg859"
   sodipodi:docname="logo-ftmscan-light.svg"
   inkscape:version="0.92.3 (2405546, 2018-03-11)">
  <metadata
     id="metadata865">
    <rdf:RDF>
      <cc:Work
         rdf:about="">
        <dc:format>image/svg+xml</dc:format>
        <dc:type
           rdf:resource="http://purl.org/dc/dcmitype/StillImage" />
      </cc:Work>
    </rdf:RDF>
  </metadata>
  <defs
     id="defs863" />
  <sodipodi:namedview
     pagecolor="#ffffff"
     bordercolor="#666666"
     borderopacity="1"
     objecttolerance="10"
     gridtolerance="10"
     guidetolerance="10"
     inkscape:pageopacity="0"
     inkscape:pageshadow="2"
     inkscape:window-width="3840"
     inkscape:window-height="2107"
     id="namedview861"
     showgrid="false"
     inkscape:zoom="4.7064098"
     inkscape:cx="23.633143"
     inkscape:cy="-7.26108"
     inkscape:window-x="-8"
     inkscape:window-y="-8"
     inkscape:window-maximized="1"
     inkscape:current-layer="g857" />
  <g
     transform="translate(-169 -216)"
     id="g857">
    <path
       d="M30.12-42.36v6.72H12.3V-24.3H26.58v6.48H12.3V0H3.84V-42.36Zm34.5,0v6.72H52.92V0H44.46V-35.64H32.82v-6.72Zm50.34.48V0h-8.4V-29.22L95.82,0H88.5L77.76-29.1V0H69.3V-41.88H79.56l12.72,31.5,12.48-31.5Zm36.78,30.3a11.486,11.486,0,0,1-1.62,5.97,11.636,11.636,0,0,1-4.8,4.38A16.642,16.642,0,0,1,137.58.42a20.085,20.085,0,0,1-8.04-1.53,13.6,13.6,0,0,1-5.67-4.41,12.722,12.722,0,0,1-2.43-6.72h9a6.877,6.877,0,0,0,2.07,4.29,6.492,6.492,0,0,0,4.71,1.71,5.481,5.481,0,0,0,4.05-1.41,4.913,4.913,0,0,0,1.41-3.63,4.756,4.756,0,0,0-1.14-3.27,8.319,8.319,0,0,0-2.88-2.07q-1.74-.78-4.8-1.8a47.45,47.45,0,0,1-6.48-2.61,11.978,11.978,0,0,1-4.29-3.75,10.744,10.744,0,0,1-1.77-6.42,10.439,10.439,0,0,1,3.93-8.61q3.93-3.15,10.41-3.15,6.72,0,10.71,3.24a12.229,12.229,0,0,1,4.53,8.64h-9.12a6.352,6.352,0,0,0-1.92-3.75,5.961,5.961,0,0,0-4.26-1.47,5.619,5.619,0,0,0-3.78,1.23,4.436,4.436,0,0,0-1.44,3.57,4.439,4.439,0,0,0,1.11,3.09,8.47,8.47,0,0,0,2.82,2.01,46.285,46.285,0,0,0,4.65,1.74,61.823,61.823,0,0,1,6.63,2.7,11.682,11.682,0,0,1,4.35,3.78A11.108,11.108,0,0,1,151.74-11.58Zm21.18-22.08a16.449,16.449,0,0,1,10.71,3.48A15.2,15.2,0,0,1,189-20.7h-8.94a6.9,6.9,0,0,0-2.46-4.17,7.555,7.555,0,0,0-4.86-1.53,7.25,7.25,0,0,0-5.61,2.49q-2.25,2.49-2.25,7.29t2.25,7.29a7.25,7.25,0,0,0,5.61,2.49,7.555,7.555,0,0,0,4.86-1.53,6.9,6.9,0,0,0,2.46-4.17H189a15.2,15.2,0,0,1-5.37,9.48A16.449,16.449,0,0,1,172.92.42a17.693,17.693,0,0,1-8.64-2.07,14.551,14.551,0,0,1-5.88-5.91,18.6,18.6,0,0,1-2.1-9.06,18.776,18.776,0,0,1,2.1-9.09,14.313,14.313,0,0,1,5.88-5.91A17.9,17.9,0,0,1,172.92-33.66Zm35.1,0a12.774,12.774,0,0,1,7.2,1.98,10.784,10.784,0,0,1,4.26,5.34v-6.9h8.4V0h-8.4V-6.96a10.943,10.943,0,0,1-4.26,5.37,12.633,12.633,0,0,1-7.2,2.01,14.278,14.278,0,0,1-7.56-2.04,13.782,13.782,0,0,1-5.25-5.91,20.5,20.5,0,0,1-1.89-9.09,20.5,20.5,0,0,1,1.89-9.09,13.782,13.782,0,0,1,5.25-5.91A14.278,14.278,0,0,1,208.02-33.66Zm2.64,7.38a8.275,8.275,0,0,0-6.36,2.58,9.988,9.988,0,0,0-2.4,7.08,9.878,9.878,0,0,0,2.4,7.05,8.324,8.324,0,0,0,6.36,2.55,8.37,8.37,0,0,0,6.33-2.61,9.706,9.706,0,0,0,2.49-6.99,9.79,9.79,0,0,0-2.49-7.05A8.37,8.37,0,0,0,210.66-26.28Zm44.7-7.44a11.77,11.77,0,0,1,9.18,3.78q3.42,3.78,3.42,10.62V0h-8.4V-18.36a8.68,8.68,0,0,0-2.04-6.15,7.253,7.253,0,0,0-5.58-2.19,7.462,7.462,0,0,0-5.76,2.34q-2.16,2.34-2.16,6.72V0h-8.46V-33.24h8.46v6.66a10.59,10.59,0,0,1,4.35-5.25A12.931,12.931,0,0,1,255.36-33.72Z"
       transform="translate(258 274)"
       fill="#001f68"
       id="path841"
       style="fill:#13b5ec;fill-opacity:0.94117647" />
    <rect
       style="fill:#001f68;fill-opacity:1"
       y="216"
       x="169"
       id="rect843"
       rx="10"
       height="73"
       width="73" />
    <g
       style="fill:#001f68;fill-opacity:1;stroke:#ffffff;stroke-opacity:1"
       transform="translate(182.999,227)"
       id="g851">
      <path
         d="M 45.054,35.037 V 15.013 a 5.006,5.006 0 0 0 -2.5,-4.33 L 25.03,0.671 a 5.006,5.006 0 0 0 -5.006,0 L 2.5,10.683 A 5.006,5.006 0 0 0 0,15.013 v 20.024 a 5.006,5.006 0 0 0 2.5,4.33 L 20.024,49.38 a 5.006,5.006 0 0 0 5.006,0 L 42.551,39.367 a 5.006,5.006 0 0 0 2.503,-4.33 z"
         id="path845"
         inkscape:connector-curvature="0"
         style="fill:#001f68;fill-opacity:1;stroke:#ffffff;stroke-width:4;stroke-linecap:round;stroke-linejoin:round;stroke-opacity:1" />
      <path
         d="M 0,0 21.851,12.64 43.7,0"
         transform="translate(0.676,12.41)"
         id="path847"
         inkscape:connector-curvature="0"
         style="fill:#001f68;fill-opacity:1;stroke:#ffffff;stroke-width:4;stroke-linecap:round;stroke-linejoin:round;stroke-opacity:1" />
      <line
         y1="25.23"
         transform="translate(22.527,25.025)"
         id="line849"
         x1="0"
         x2="0"
         y2="0"
         style="fill:#001f68;fill-opacity:1;stroke:#ffffff;stroke-width:4;stroke-linecap:round;stroke-linejoin:round;stroke-opacity:1" />
    </g>
  </g>
</svg>
